<svg width="1200" height="900" viewBox="0 0 1200 900" fill="none" xmlns="http://www.w3.org/2000/svg">
  <rect width="1200" height="900" rx="48" fill="#F0FDFA"/>
  <rect x="118" y="104" width="964" height="692" rx="40" fill="#FFFFFF"/>
  <rect x="118" y="104" width="964" height="692" rx="40" stroke="#99F6E4" stroke-width="8"/>
  <circle cx="360" cy="390" r="184" fill="#CCFBF1"/>
  <rect x="302" y="244" width="120" height="292" rx="30" fill="#1E293B"/>
  <rect x="322" y="278" width="80" height="182" rx="16" fill="#0EA5E9"/>
  <circle cx="362" cy="500" r="14" fill="#475569"/>
  <circle cx="494" cy="514" r="92" fill="#0F766E" fill-opacity="0.12"/>
  <path d="M538 580L610 652" stroke="#0F766E" stroke-width="26" stroke-linecap="round"/>
  <circle cx="490" cy="510" r="88" stroke="#0F766E" stroke-width="24"/>
  <rect x="690" y="228" width="250" height="54" rx="18" fill="#0F172A"/>
  <rect x="690" y="326" width="326" height="24" rx="12" fill="#0F766E"/>
  <rect x="690" y="374" width="278" height="24" rx="12" fill="#2DD4BF"/>
  <rect x="690" y="422" width="184" height="24" rx="12" fill="#99F6E4"/>
  <rect x="690" y="518" width="276" height="164" rx="28" fill="#ECFEFF"/>
  <rect x="724" y="556" width="208" height="18" rx="9" fill="#155E75"/>
  <rect x="724" y="596" width="170" height="18" rx="9" fill="#14B8A6"/>
  <rect x="724" y="636" width="120" height="18" rx="9" fill="#5EEAD4"/>
</svg>
